<mxfile host="app.diagrams.net" modified="2021-11-10T16:24:27.252Z" agent="5.0 (Macintosh; Intel Mac OS X 10_15_7) AppleWebKit/537.36 (KHTML, like Gecko) Chrome/95.0.4638.69 Safari/537.36" etag="P3bNSgagnNb2NYfLO-fX" version="15.7.1" type="github">
  <diagram id="p_A3POv_7OdEzddipI_T" name="Page-1-frontend">
    <mxGraphModel dx="1284" dy="1133" grid="1" gridSize="10" guides="1" tooltips="1" connect="1" arrows="1" fold="1" page="1" pageScale="1" pageWidth="2339" pageHeight="3300" math="0" shadow="0">
      <root>
        <mxCell id="0" />
        <mxCell id="1" parent="0" />
        <mxCell id="QcY7JtW_8c2vVM3JENa3-42" style="edgeStyle=orthogonalEdgeStyle;curved=0;rounded=1;sketch=0;orthogonalLoop=1;jettySize=auto;html=1;exitX=0.5;exitY=1;exitDx=0;exitDy=0;entryX=0.5;entryY=0;entryDx=0;entryDy=0;" parent="1" source="QcY7JtW_8c2vVM3JENa3-2" target="QcY7JtW_8c2vVM3JENa3-30" edge="1">
          <mxGeometry relative="1" as="geometry" />
        </mxCell>
        <mxCell id="QcY7JtW_8c2vVM3JENa3-47" style="edgeStyle=orthogonalEdgeStyle;curved=0;rounded=1;sketch=0;orthogonalLoop=1;jettySize=auto;html=1;" parent="1" source="QcY7JtW_8c2vVM3JENa3-2" target="QcY7JtW_8c2vVM3JENa3-39" edge="1">
          <mxGeometry relative="1" as="geometry" />
        </mxCell>
        <mxCell id="QcY7JtW_8c2vVM3JENa3-2" value="Homepage" style="rounded=0;whiteSpace=wrap;html=1;" parent="1" vertex="1">
          <mxGeometry x="950" y="300" width="120" height="60" as="geometry" />
        </mxCell>
        <mxCell id="QcY7JtW_8c2vVM3JENa3-10" style="edgeStyle=orthogonalEdgeStyle;curved=0;rounded=1;sketch=0;orthogonalLoop=1;jettySize=auto;html=1;exitX=0;exitY=0.5;exitDx=0;exitDy=0;entryX=0.5;entryY=0;entryDx=0;entryDy=0;" parent="1" source="QcY7JtW_8c2vVM3JENa3-3" target="QcY7JtW_8c2vVM3JENa3-2" edge="1">
          <mxGeometry relative="1" as="geometry" />
        </mxCell>
        <mxCell id="QcY7JtW_8c2vVM3JENa3-12" style="edgeStyle=orthogonalEdgeStyle;curved=0;rounded=1;sketch=0;orthogonalLoop=1;jettySize=auto;html=1;exitX=0.5;exitY=1;exitDx=0;exitDy=0;entryX=0.5;entryY=0;entryDx=0;entryDy=0;" parent="1" source="QcY7JtW_8c2vVM3JENa3-3" target="QcY7JtW_8c2vVM3JENa3-5" edge="1">
          <mxGeometry relative="1" as="geometry" />
        </mxCell>
        <mxCell id="QcY7JtW_8c2vVM3JENa3-13" style="edgeStyle=orthogonalEdgeStyle;curved=0;rounded=1;sketch=0;orthogonalLoop=1;jettySize=auto;html=1;exitX=1;exitY=0.5;exitDx=0;exitDy=0;entryX=0.5;entryY=0;entryDx=0;entryDy=0;" parent="1" source="QcY7JtW_8c2vVM3JENa3-3" target="QcY7JtW_8c2vVM3JENa3-7" edge="1">
          <mxGeometry relative="1" as="geometry" />
        </mxCell>
        <mxCell id="QcY7JtW_8c2vVM3JENa3-14" style="edgeStyle=orthogonalEdgeStyle;curved=0;rounded=1;sketch=0;orthogonalLoop=1;jettySize=auto;html=1;exitX=1;exitY=0.5;exitDx=0;exitDy=0;entryX=0.5;entryY=0;entryDx=0;entryDy=0;" parent="1" source="QcY7JtW_8c2vVM3JENa3-3" target="QcY7JtW_8c2vVM3JENa3-8" edge="1">
          <mxGeometry relative="1" as="geometry" />
        </mxCell>
        <mxCell id="QcY7JtW_8c2vVM3JENa3-16" style="edgeStyle=orthogonalEdgeStyle;curved=0;rounded=1;sketch=0;orthogonalLoop=1;jettySize=auto;html=1;exitX=0;exitY=0.5;exitDx=0;exitDy=0;entryX=0.5;entryY=0;entryDx=0;entryDy=0;" parent="1" source="QcY7JtW_8c2vVM3JENa3-3" target="QcY7JtW_8c2vVM3JENa3-15" edge="1">
          <mxGeometry relative="1" as="geometry" />
        </mxCell>
        <mxCell id="bLZsTihOHhk6Us4Lpnau-10" style="edgeStyle=orthogonalEdgeStyle;rounded=0;orthogonalLoop=1;jettySize=auto;html=1;exitX=0;exitY=1;exitDx=0;exitDy=0;" edge="1" parent="1" source="QcY7JtW_8c2vVM3JENa3-3">
          <mxGeometry relative="1" as="geometry">
            <mxPoint x="1140" y="130" as="targetPoint" />
          </mxGeometry>
        </mxCell>
        <mxCell id="QcY7JtW_8c2vVM3JENa3-3" value="PAGES" style="rounded=0;whiteSpace=wrap;html=1;" parent="1" vertex="1">
          <mxGeometry x="1250" width="120" height="60" as="geometry" />
        </mxCell>
        <mxCell id="QcY7JtW_8c2vVM3JENa3-40" style="edgeStyle=orthogonalEdgeStyle;curved=0;rounded=1;sketch=0;orthogonalLoop=1;jettySize=auto;html=1;exitX=0.5;exitY=1;exitDx=0;exitDy=0;entryX=0.5;entryY=0;entryDx=0;entryDy=0;" parent="1" source="QcY7JtW_8c2vVM3JENa3-5" target="QcY7JtW_8c2vVM3JENa3-35" edge="1">
          <mxGeometry relative="1" as="geometry" />
        </mxCell>
        <mxCell id="bLZsTihOHhk6Us4Lpnau-2" value="" style="edgeStyle=orthogonalEdgeStyle;rounded=0;orthogonalLoop=1;jettySize=auto;html=1;" edge="1" parent="1" source="QcY7JtW_8c2vVM3JENa3-5" target="bLZsTihOHhk6Us4Lpnau-1">
          <mxGeometry relative="1" as="geometry" />
        </mxCell>
        <mxCell id="QcY7JtW_8c2vVM3JENa3-5" value="Products" style="rounded=0;whiteSpace=wrap;html=1;" parent="1" vertex="1">
          <mxGeometry x="1360" y="430" width="140" height="60" as="geometry" />
        </mxCell>
        <mxCell id="bLZsTihOHhk6Us4Lpnau-9" value="" style="edgeStyle=orthogonalEdgeStyle;rounded=0;orthogonalLoop=1;jettySize=auto;html=1;" edge="1" parent="1" source="QcY7JtW_8c2vVM3JENa3-7" target="bLZsTihOHhk6Us4Lpnau-8">
          <mxGeometry relative="1" as="geometry" />
        </mxCell>
        <mxCell id="QcY7JtW_8c2vVM3JENa3-7" value="Shopping Cart (carrello)" style="rounded=0;whiteSpace=wrap;html=1;" parent="1" vertex="1">
          <mxGeometry x="1710" y="110" width="150" height="60" as="geometry" />
        </mxCell>
        <mxCell id="QcY7JtW_8c2vVM3JENa3-8" value="Contact" style="rounded=0;whiteSpace=wrap;html=1;" parent="1" vertex="1">
          <mxGeometry x="2000" y="110" width="120" height="60" as="geometry" />
        </mxCell>
        <mxCell id="QcY7JtW_8c2vVM3JENa3-25" style="edgeStyle=orthogonalEdgeStyle;curved=0;rounded=1;sketch=0;orthogonalLoop=1;jettySize=auto;html=1;" parent="1" source="QcY7JtW_8c2vVM3JENa3-15" target="QcY7JtW_8c2vVM3JENa3-26" edge="1">
          <mxGeometry relative="1" as="geometry">
            <mxPoint x="590" y="420" as="targetPoint" />
          </mxGeometry>
        </mxCell>
        <mxCell id="QcY7JtW_8c2vVM3JENa3-29" style="edgeStyle=orthogonalEdgeStyle;curved=0;rounded=1;sketch=0;orthogonalLoop=1;jettySize=auto;html=1;exitX=1;exitY=0.5;exitDx=0;exitDy=0;entryX=0;entryY=0.5;entryDx=0;entryDy=0;" parent="1" source="QcY7JtW_8c2vVM3JENa3-15" target="QcY7JtW_8c2vVM3JENa3-28" edge="1">
          <mxGeometry relative="1" as="geometry" />
        </mxCell>
        <mxCell id="QcY7JtW_8c2vVM3JENa3-15" value="Login" style="rounded=0;whiteSpace=wrap;html=1;sketch=0;" parent="1" vertex="1">
          <mxGeometry x="330" y="390" width="120" height="60" as="geometry" />
        </mxCell>
        <mxCell id="QcY7JtW_8c2vVM3JENa3-21" style="edgeStyle=orthogonalEdgeStyle;curved=0;rounded=1;sketch=0;orthogonalLoop=1;jettySize=auto;html=1;exitX=0.5;exitY=0;exitDx=0;exitDy=0;entryX=0.5;entryY=1;entryDx=0;entryDy=0;" parent="1" source="QcY7JtW_8c2vVM3JENa3-19" target="QcY7JtW_8c2vVM3JENa3-15" edge="1">
          <mxGeometry relative="1" as="geometry">
            <Array as="points">
              <mxPoint x="140" y="520" />
              <mxPoint x="360" y="520" />
              <mxPoint x="360" y="450" />
            </Array>
          </mxGeometry>
        </mxCell>
        <mxCell id="QcY7JtW_8c2vVM3JENa3-19" value="Validation (frontend - backend)" style="rounded=0;whiteSpace=wrap;html=1;sketch=0;" parent="1" vertex="1">
          <mxGeometry x="80" y="590" width="120" height="60" as="geometry" />
        </mxCell>
        <mxCell id="QcY7JtW_8c2vVM3JENa3-27" style="edgeStyle=orthogonalEdgeStyle;curved=0;rounded=1;sketch=0;orthogonalLoop=1;jettySize=auto;html=1;" parent="1" source="QcY7JtW_8c2vVM3JENa3-22" edge="1">
          <mxGeometry relative="1" as="geometry">
            <mxPoint x="390" y="450" as="targetPoint" />
          </mxGeometry>
        </mxCell>
        <mxCell id="QcY7JtW_8c2vVM3JENa3-22" value="JWT" style="rounded=0;whiteSpace=wrap;html=1;sketch=0;" parent="1" vertex="1">
          <mxGeometry x="330" y="590" width="120" height="60" as="geometry" />
        </mxCell>
        <mxCell id="QcY7JtW_8c2vVM3JENa3-24" style="edgeStyle=orthogonalEdgeStyle;curved=0;rounded=1;sketch=0;orthogonalLoop=1;jettySize=auto;html=1;entryX=0;entryY=0.5;entryDx=0;entryDy=0;" parent="1" source="QcY7JtW_8c2vVM3JENa3-23" target="QcY7JtW_8c2vVM3JENa3-15" edge="1">
          <mxGeometry relative="1" as="geometry" />
        </mxCell>
        <mxCell id="QcY7JtW_8c2vVM3JENa3-23" value="Register" style="rounded=0;whiteSpace=wrap;html=1;sketch=0;" parent="1" vertex="1">
          <mxGeometry x="40" y="390" width="120" height="60" as="geometry" />
        </mxCell>
        <mxCell id="QcY7JtW_8c2vVM3JENa3-26" value="Logout" style="rounded=0;whiteSpace=wrap;html=1;sketch=0;" parent="1" vertex="1">
          <mxGeometry x="580" y="310" width="120" height="60" as="geometry" />
        </mxCell>
        <mxCell id="QcY7JtW_8c2vVM3JENa3-28" value="Admin page (only visible for admin permission)" style="rounded=0;whiteSpace=wrap;html=1;sketch=0;" parent="1" vertex="1">
          <mxGeometry x="590" y="590" width="120" height="60" as="geometry" />
        </mxCell>
        <mxCell id="QcY7JtW_8c2vVM3JENa3-43" style="edgeStyle=orthogonalEdgeStyle;curved=0;rounded=1;sketch=0;orthogonalLoop=1;jettySize=auto;html=1;exitX=0.5;exitY=1;exitDx=0;exitDy=0;entryX=0.5;entryY=0;entryDx=0;entryDy=0;" parent="1" source="QcY7JtW_8c2vVM3JENa3-30" target="QcY7JtW_8c2vVM3JENa3-31" edge="1">
          <mxGeometry relative="1" as="geometry" />
        </mxCell>
        <mxCell id="QcY7JtW_8c2vVM3JENa3-30" value="Carosello (Slider)" style="rounded=0;whiteSpace=wrap;html=1;sketch=0;" parent="1" vertex="1">
          <mxGeometry x="950" y="440" width="120" height="60" as="geometry" />
        </mxCell>
        <mxCell id="QcY7JtW_8c2vVM3JENa3-44" style="edgeStyle=orthogonalEdgeStyle;curved=0;rounded=1;sketch=0;orthogonalLoop=1;jettySize=auto;html=1;exitX=0.5;exitY=1;exitDx=0;exitDy=0;entryX=0.5;entryY=0;entryDx=0;entryDy=0;" parent="1" source="QcY7JtW_8c2vVM3JENa3-31" target="QcY7JtW_8c2vVM3JENa3-32" edge="1">
          <mxGeometry relative="1" as="geometry" />
        </mxCell>
        <mxCell id="QcY7JtW_8c2vVM3JENa3-50" style="edgeStyle=orthogonalEdgeStyle;curved=0;rounded=1;sketch=0;orthogonalLoop=1;jettySize=auto;html=1;entryX=0;entryY=0.5;entryDx=0;entryDy=0;" parent="1" source="QcY7JtW_8c2vVM3JENa3-31" target="QcY7JtW_8c2vVM3JENa3-39" edge="1">
          <mxGeometry relative="1" as="geometry" />
        </mxCell>
        <mxCell id="QcY7JtW_8c2vVM3JENa3-31" value="Featured Products" style="rounded=0;whiteSpace=wrap;html=1;sketch=0;" parent="1" vertex="1">
          <mxGeometry x="950" y="540" width="120" height="60" as="geometry" />
        </mxCell>
        <mxCell id="QcY7JtW_8c2vVM3JENa3-45" value="" style="edgeStyle=orthogonalEdgeStyle;curved=0;rounded=1;sketch=0;orthogonalLoop=1;jettySize=auto;html=1;" parent="1" source="QcY7JtW_8c2vVM3JENa3-32" target="QcY7JtW_8c2vVM3JENa3-34" edge="1">
          <mxGeometry relative="1" as="geometry" />
        </mxCell>
        <mxCell id="QcY7JtW_8c2vVM3JENa3-51" style="edgeStyle=orthogonalEdgeStyle;curved=0;rounded=1;sketch=0;orthogonalLoop=1;jettySize=auto;html=1;entryX=0;entryY=0.5;entryDx=0;entryDy=0;" parent="1" source="QcY7JtW_8c2vVM3JENa3-32" target="QcY7JtW_8c2vVM3JENa3-39" edge="1">
          <mxGeometry relative="1" as="geometry" />
        </mxCell>
        <mxCell id="QcY7JtW_8c2vVM3JENa3-32" value="Latest Products" style="rounded=0;whiteSpace=wrap;html=1;sketch=0;" parent="1" vertex="1">
          <mxGeometry x="950" y="620" width="120" height="60" as="geometry" />
        </mxCell>
        <mxCell id="QcY7JtW_8c2vVM3JENa3-33" value="Footer" style="rounded=0;whiteSpace=wrap;html=1;sketch=0;" parent="1" vertex="1">
          <mxGeometry x="950" y="810" width="120" height="60" as="geometry" />
        </mxCell>
        <mxCell id="QcY7JtW_8c2vVM3JENa3-46" value="" style="edgeStyle=orthogonalEdgeStyle;curved=0;rounded=1;sketch=0;orthogonalLoop=1;jettySize=auto;html=1;" parent="1" source="QcY7JtW_8c2vVM3JENa3-34" target="QcY7JtW_8c2vVM3JENa3-33" edge="1">
          <mxGeometry relative="1" as="geometry" />
        </mxCell>
        <mxCell id="QcY7JtW_8c2vVM3JENa3-52" style="edgeStyle=orthogonalEdgeStyle;curved=0;rounded=1;sketch=0;orthogonalLoop=1;jettySize=auto;html=1;entryX=0.5;entryY=1;entryDx=0;entryDy=0;" parent="1" source="QcY7JtW_8c2vVM3JENa3-34" target="QcY7JtW_8c2vVM3JENa3-39" edge="1">
          <mxGeometry relative="1" as="geometry" />
        </mxCell>
        <mxCell id="QcY7JtW_8c2vVM3JENa3-34" value="Trening products" style="rounded=0;whiteSpace=wrap;html=1;sketch=0;" parent="1" vertex="1">
          <mxGeometry x="950" y="720" width="120" height="60" as="geometry" />
        </mxCell>
        <mxCell id="QcY7JtW_8c2vVM3JENa3-41" style="edgeStyle=orthogonalEdgeStyle;curved=0;rounded=1;sketch=0;orthogonalLoop=1;jettySize=auto;html=1;exitX=0.5;exitY=1;exitDx=0;exitDy=0;entryX=0.5;entryY=0;entryDx=0;entryDy=0;" parent="1" source="QcY7JtW_8c2vVM3JENa3-35" target="QcY7JtW_8c2vVM3JENa3-36" edge="1">
          <mxGeometry relative="1" as="geometry" />
        </mxCell>
        <mxCell id="QcY7JtW_8c2vVM3JENa3-49" value="" style="edgeStyle=orthogonalEdgeStyle;curved=0;rounded=1;sketch=0;orthogonalLoop=1;jettySize=auto;html=1;" parent="1" source="QcY7JtW_8c2vVM3JENa3-35" target="QcY7JtW_8c2vVM3JENa3-39" edge="1">
          <mxGeometry relative="1" as="geometry" />
        </mxCell>
        <mxCell id="QcY7JtW_8c2vVM3JENa3-35" value="SIngle card compontent" style="rounded=0;whiteSpace=wrap;html=1;sketch=0;" parent="1" vertex="1">
          <mxGeometry x="1365" y="570" width="130" height="60" as="geometry" />
        </mxCell>
        <mxCell id="QcY7JtW_8c2vVM3JENa3-36" value="Footer" style="rounded=0;whiteSpace=wrap;html=1;sketch=0;" parent="1" vertex="1">
          <mxGeometry x="1370" y="720" width="120" height="60" as="geometry" />
        </mxCell>
        <mxCell id="QcY7JtW_8c2vVM3JENa3-39" value="Product Details pages (for each product)" style="rounded=0;whiteSpace=wrap;html=1;sketch=0;" parent="1" vertex="1">
          <mxGeometry x="1170" y="575" width="120" height="50" as="geometry" />
        </mxCell>
        <mxCell id="bLZsTihOHhk6Us4Lpnau-3" style="edgeStyle=orthogonalEdgeStyle;rounded=0;orthogonalLoop=1;jettySize=auto;html=1;entryX=0;entryY=0.5;entryDx=0;entryDy=0;" edge="1" parent="1" source="bLZsTihOHhk6Us4Lpnau-1" target="QcY7JtW_8c2vVM3JENa3-7">
          <mxGeometry relative="1" as="geometry">
            <Array as="points">
              <mxPoint x="1670" y="460" />
              <mxPoint x="1670" y="150" />
              <mxPoint x="1710" y="150" />
            </Array>
          </mxGeometry>
        </mxCell>
        <mxCell id="bLZsTihOHhk6Us4Lpnau-6" value="" style="edgeStyle=orthogonalEdgeStyle;rounded=0;orthogonalLoop=1;jettySize=auto;html=1;" edge="1" parent="1" source="bLZsTihOHhk6Us4Lpnau-1" target="bLZsTihOHhk6Us4Lpnau-5">
          <mxGeometry relative="1" as="geometry">
            <Array as="points">
              <mxPoint x="1500" y="460" />
              <mxPoint x="1500" y="380" />
              <mxPoint x="1580" y="380" />
            </Array>
          </mxGeometry>
        </mxCell>
        <mxCell id="bLZsTihOHhk6Us4Lpnau-1" value="Add item" style="rhombus;whiteSpace=wrap;html=1;rounded=0;" vertex="1" parent="1">
          <mxGeometry x="1550" y="420" width="80" height="80" as="geometry" />
        </mxCell>
        <mxCell id="bLZsTihOHhk6Us4Lpnau-7" style="edgeStyle=orthogonalEdgeStyle;rounded=0;orthogonalLoop=1;jettySize=auto;html=1;exitX=0.5;exitY=0;exitDx=0;exitDy=0;entryX=0;entryY=0.5;entryDx=0;entryDy=0;" edge="1" parent="1" source="bLZsTihOHhk6Us4Lpnau-5" target="QcY7JtW_8c2vVM3JENa3-7">
          <mxGeometry relative="1" as="geometry" />
        </mxCell>
        <mxCell id="bLZsTihOHhk6Us4Lpnau-5" value="Remove Item" style="rhombus;whiteSpace=wrap;html=1;rounded=0;" vertex="1" parent="1">
          <mxGeometry x="1540" y="260" width="80" height="80" as="geometry" />
        </mxCell>
        <mxCell id="bLZsTihOHhk6Us4Lpnau-8" value="Connection to the database" style="whiteSpace=wrap;html=1;rounded=0;" vertex="1" parent="1">
          <mxGeometry x="1725" y="250" width="120" height="60" as="geometry" />
        </mxCell>
        <mxCell id="bLZsTihOHhk6Us4Lpnau-11" value="404 page not found redirect" style="rounded=0;whiteSpace=wrap;html=1;" vertex="1" parent="1">
          <mxGeometry x="1080" y="130" width="120" height="60" as="geometry" />
        </mxCell>
      </root>
    </mxGraphModel>
  </diagram>
</mxfile>
